<?xml version="1.0" standalone="no"?>
<!DOCTYPE svg PUBLIC "-//W3C//DTD SVG 20010904//EN"
 "http://www.w3.org/TR/2001/REC-SVG-20010904/DTD/svg10.dtd">
<svg version="1.0" xmlns="http://www.w3.org/2000/svg"
 width="1000.000000pt" height="1000.000000pt" viewBox="0 0 1000.000000 1000.000000"
 preserveAspectRatio="xMidYMid meet">
<metadata>
Created by potrace 1.14, written by Peter Selinger 2001-2017
</metadata>
<g transform="translate(0.000000,1000.000000) scale(0.100000,-0.100000)"
fill="#000000" stroke="none">
<path d="M7546 8962 c-4 -3 -41 -11 -81 -16 -52 -7 -307 -50 -365 -62 -14 -3
-39 -7 -57 -9 -18 -3 -78 -17 -135 -31 -57 -14 -112 -27 -123 -29 -33 -8 -209
-56 -225 -63 -8 -3 -22 -7 -30 -8 -18 -3 -189 -62 -315 -109 -351 -131 -741
-326 -1090 -544 -49 -31 -91 -59 -93 -63 -2 -5 -8 -8 -12 -8 -18 0 -468 -322
-522 -372 -7 -7 -47 -40 -88 -73 -130 -103 -239 -200 -381 -337 -35 -33 -43
-36 -96 -37 -68 0 -270 -9 -363 -16 -166 -13 -263 -22 -310 -30 -14 -2 -50 -7
-80 -10 -30 -3 -68 -9 -85 -11 -16 -3 -46 -7 -65 -9 -29 -3 -89 -14 -235 -40
-155 -27 -393 -83 -565 -131 -69 -20 -133 -37 -142 -39 -9 -2 -26 -9 -37 -15
-12 -6 -21 -9 -21 -6 0 8 -325 -108 -475 -169 -11 -5 -23 -7 -27 -7 -5 1 -8
-3 -8 -8 0 -6 -7 -10 -15 -10 -8 0 -50 -16 -92 -36 -404 -187 -625 -314 -987
-567 -17 -12 -33 -25 -34 -29 -2 -5 -10 -8 -17 -8 -7 0 -15 -3 -17 -8 -2 -4
-34 -29 -73 -56 -108 -76 -123 -90 -114 -106 21 -40 210 -500 216 -527 3 -13
9 -23 14 -23 5 0 8 -3 7 -7 -1 -9 5 -28 32 -93 11 -25 38 -90 60 -145 23 -55
45 -109 50 -120 4 -11 29 -72 55 -135 46 -116 51 -126 78 -190 8 -19 34 -82
57 -140 23 -58 47 -116 53 -130 5 -14 11 -27 12 -30 1 -3 9 -23 19 -45 9 -22
98 -238 198 -480 99 -242 189 -459 199 -482 11 -23 19 -48 19 -55 0 -8 4 -18
9 -23 5 -6 24 -46 41 -90 17 -44 37 -93 44 -110 7 -16 22 -52 34 -80 11 -27
43 -105 71 -172 28 -67 51 -124 51 -127 0 -3 14 -35 30 -71 17 -36 30 -70 30
-75 0 -6 4 -18 10 -28 12 -20 140 -330 140 -338 0 -3 9 -24 19 -47 11 -23 40
-94 66 -157 26 -63 53 -128 60 -145 7 -16 32 -77 55 -135 24 -58 51 -123 60
-145 9 -22 35 -85 58 -140 109 -266 219 -534 274 -670 34 -82 64 -153 68 -158
4 -4 47 19 96 51 175 114 414 267 446 286 18 10 35 22 36 27 2 5 8 9 13 9 6 0
33 15 62 33 51 33 84 52 222 130 87 48 385 195 405 199 8 2 17 6 20 9 8 9 327
135 440 174 106 36 361 114 392 120 9 2 63 15 120 29 57 14 114 28 128 30 14
3 34 7 45 9 36 8 189 36 230 42 22 4 51 8 65 11 44 7 166 22 240 29 30 3 73 7
95 10 116 12 317 19 546 17 l257 -1 198 197 c198 196 219 216 344 322 36 30
67 57 70 60 3 3 30 24 60 48 30 23 60 45 65 49 6 5 30 24 54 43 25 19 55 42
67 50 12 8 56 39 97 68 42 28 78 52 80 52 2 0 3 -78 1 -173 -2 -151 -6 -279
-19 -642 -1 -49 -6 -187 -10 -305 -4 -118 -8 -246 -10 -284 -3 -66 -1 -71 26
-97 34 -32 114 -50 243 -55 49 -2 90 -5 93 -7 2 -2 21 -1 43 3 23 4 40 3 40
-2 0 -5 7 -5 18 0 9 5 35 10 57 11 62 4 152 27 188 48 38 23 37 -12 12 448 -3
66 -8 152 -10 190 -3 66 -13 238 -20 370 -6 105 -18 427 -19 497 -1 38 -3 68
-6 68 -3 0 -5 35 -5 78 0 42 -2 103 -5 136 -4 42 -2 62 8 72 38 38 413 196
672 283 85 29 162 55 170 58 8 4 18 6 22 5 3 -1 33 7 65 18 94 30 409 107 513
125 19 3 43 8 52 11 9 3 27 7 40 9 13 3 34 7 48 10 52 11 77 16 130 26 30 5
69 14 85 19 17 5 55 14 86 20 l56 11 -43 107 c-24 59 -52 121 -61 137 -9 17
-16 32 -15 35 2 5 -78 204 -116 290 -8 19 -16 37 -17 40 -3 8 -13 34 -67 162
-26 65 -48 124 -48 131 0 8 21 59 46 113 76 162 140 358 168 519 3 17 8 40 10
52 29 141 29 520 1 678 -24 130 -38 193 -65 282 -30 102 -79 234 -105 283 -7
14 -24 48 -38 76 -53 107 -171 293 -216 341 -12 12 -21 25 -21 28 0 9 -66 81
-175 190 -96 97 -284 245 -397 312 -115 69 -306 157 -428 197 l-55 18 -39 97
c-21 53 -47 114 -56 136 -10 22 -32 76 -50 120 -31 79 -42 105 -74 177 -9 20
-16 38 -16 41 0 2 -8 22 -17 43 -9 22 -17 41 -18 44 -1 3 -9 22 -18 44 -9 21
-17 40 -17 42 0 2 -12 29 -26 61 -15 31 -27 62 -29 67 -1 6 -7 22 -12 36 -6
14 -34 81 -62 150 -28 69 -57 136 -63 150 -6 14 -12 30 -14 35 -1 6 -11 31
-22 56 -19 44 -22 46 -57 45 -20 0 -38 -2 -39 -4z"/>
</g>
</svg>
