<?xml version="1.0" standalone="no"?>
<!DOCTYPE svg PUBLIC "-//W3C//DTD SVG 20010904//EN"
 "http://www.w3.org/TR/2001/REC-SVG-20010904/DTD/svg10.dtd">
<svg version="1.0" xmlns="http://www.w3.org/2000/svg"
 width="288.000000pt" height="288.000000pt" viewBox="0 0 288.000000 288.000000"
 preserveAspectRatio="xMidYMid meet">
<metadata>
Created by potrace 1.11, written by Peter Selinger 2001-2013
</metadata>
<g transform="translate(0.000000,288.000000) scale(0.100000,-0.100000)"
fill="#000000" stroke="none">
<path d="M1170 2745 l0 -45 -135 0 -135 0 0 -45 0 -45 -45 0 -45 0 0 -45 0
-45 -45 0 -45 0 0 -45 0 -45 -45 0 -45 0 0 -45 0 -45 -45 0 -45 0 0 -90 0 -90
-45 0 -45 0 0 -225 0 -225 -90 0 -90 0 0 -45 0 -45 -45 0 -45 0 0 -135 0 -135
-45 0 -45 0 0 -45 0 -45 -45 0 -45 0 0 -45 0 -45 45 0 45 0 0 -45 0 -45 45 0
45 0 0 -45 0 -45 90 0 90 0 0 -90 0 -90 180 0 180 0 0 -270 0 -270 45 0 45 0
0 -45 0 -45 -45 0 -45 0 0 -45 0 -45 -45 0 -45 0 0 -45 0 -45 405 0 405 0 0
90 0 90 45 0 45 0 0 -90 0 -90 360 0 360 0 0 45 0 45 -45 0 -45 0 0 45 0 45
-45 0 -45 0 0 45 0 45 135 0 135 0 0 90 0 90 90 0 90 0 0 135 0 135 -45 0 -45
0 0 45 0 45 -45 0 -45 0 0 135 0 135 -45 0 -45 0 0 45 0 45 -45 0 -45 0 0 45
0 45 45 0 45 0 0 45 0 45 45 0 45 0 0 45 0 45 45 0 45 0 0 90 0 90 45 0 45 0
0 270 0 270 -45 0 -45 0 0 90 0 90 -45 0 -45 0 0 45 0 45 -45 0 -45 0 0 45 0
45 -45 0 -45 0 0 45 0 45 -45 0 -45 0 0 45 0 45 -135 0 -135 0 0 45 0 45 -315
0 -315 0 0 -45z"/>
</g>
</svg>
