<?xml version="1.0" standalone="no"?>
<!DOCTYPE svg PUBLIC "-//W3C//DTD SVG 20010904//EN"
 "http://www.w3.org/TR/2001/REC-SVG-20010904/DTD/svg10.dtd">
<svg version="1.0" xmlns="http://www.w3.org/2000/svg"
 width="600.000000pt" height="600.000000pt" viewBox="0 0 600.000000 600.000000"
 preserveAspectRatio="xMidYMid meet">
<metadata>
Created by potrace 1.11, written by Peter Selinger 2001-2013
</metadata>
<g transform="translate(0.000000,600.000000) scale(0.100000,-0.100000)"
fill="#000000" stroke="none">
<path d="M391 5984 c-143 -38 -279 -152 -347 -289 l-39 -79 0 -2621 0 -2621
39 -80 c53 -107 143 -197 250 -250 l80 -39 2621 0 2621 0 80 39 c139 69 250
204 289 351 13 52 15 351 15 2600 0 2803 5 2591 -62 2719 -41 77 -145 181
-224 223 -128 68 86 63 -2724 62 -2189 0 -2553 -2 -2599 -15z"/>
</g>
</svg>
