<?xml version="1.0" standalone="no"?>
<!DOCTYPE svg PUBLIC "-//W3C//DTD SVG 20010904//EN"
 "http://www.w3.org/TR/2001/REC-SVG-20010904/DTD/svg10.dtd">
<svg version="1.0" xmlns="http://www.w3.org/2000/svg"
 width="340.000000pt" height="340.000000pt" viewBox="0 0 340.000000 340.000000"
 preserveAspectRatio="xMidYMid meet">
<metadata>
Created by potrace 1.11, written by Peter Selinger 2001-2013
</metadata>
<g transform="translate(0.000000,340.000000) scale(0.100000,-0.100000)"
fill="#000000" stroke="none">
<path d="M0 1700 l0 -1700 1700 0 1700 0 0 1686 c0 1447 -2 1687 -14 1700 -13
12 -253 14 -1700 14 l-1686 0 0 -1700z m3042 1027 c61 -30 105 -74 140 -140
21 -39 23 -57 26 -234 l4 -193 -149 -2 c-90 -1 -128 -4 -96 -7 84 -9 115 -49
72 -92 l-21 -21 21 -19 c24 -23 27 -57 7 -85 -14 -19 -39 -19 -1346 -19 -1307
0 -1332 0 -1346 19 -20 28 -17 62 7 85 l21 19 -21 21 c-43 43 -12 83 72 92 32
3 -5 6 -95 7 l-148 2 0 173 c0 188 6 220 49 289 36 56 87 96 154 120 49 16
123 17 1322 15 l1270 -2 57 -28z m90 -1024 c25 -23 25 -104 -1 -127 -18 -16
-112 -17 -1431 -17 -1319 0 -1413 1 -1431 17 -25 22 -26 100 -2 126 15 17 73
18 1431 18 1303 0 1417 -1 1434 -17z m76 -836 c-3 -184 -4 -194 -26 -222 -13
-17 -33 -35 -45 -42 -17 -10 -346 -12 -1437 -12 -1091 0 -1420 2 -1437 12 -12
7 -32 25 -45 42 -22 28 -23 38 -26 222 l-3 193 1511 0 1511 0 -3 -193z"/>
</g>
</svg>
