<?xml version="1.0" standalone="no"?>
<!DOCTYPE svg PUBLIC "-//W3C//DTD SVG 20010904//EN"
 "http://www.w3.org/TR/2001/REC-SVG-20010904/DTD/svg10.dtd">
<svg version="1.0" xmlns="http://www.w3.org/2000/svg"
 width="192.000000pt" height="192.000000pt" viewBox="0 0 192.000000 192.000000"
 preserveAspectRatio="xMidYMid meet">
<metadata>
Created by potrace 1.11, written by Peter Selinger 2001-2013
</metadata>
<g transform="translate(0.000000,192.000000) scale(0.100000,-0.100000)"
fill="#000000" stroke="none">
<path d="M144 1584 c-67 -33 -65 -16 -65 -612 0 -295 1 -541 2 -547 1 -5 2
-15 3 -22 0 -6 12 -24 26 -40 14 -15 25 -31 25 -35 0 -3 4 -10 9 -15 6 -5 6
-2 1 6 -6 11 -4 13 11 7 10 -5 87 -8 171 -9 100 0 150 -3 146 -10 -4 -6 -1 -7
8 -1 20 13 240 14 232 1 -4 -6 -1 -7 8 -1 20 13 240 14 232 1 -4 -6 -1 -7 8
-1 21 13 681 15 672 1 -4 -6 -1 -7 8 -1 8 5 25 10 37 12 17 2 22 -1 16 -10 -6
-10 -4 -10 9 0 9 8 21 11 27 7 10 -6 71 31 78 47 2 5 9 5 14 2 6 -4 8 -2 4 4
-3 6 1 18 10 26 9 9 11 16 4 16 -6 0 -8 5 -5 11 4 6 7 250 7 543 0 479 -2 537
-17 569 -33 70 6 67 -867 67 -677 0 -787 -2 -814 -16z"/>
<path d="M1789 323 c-13 -16 -12 -17 4 -4 16 13 21 21 13 21 -2 0 -10 -8 -17
-17z"/>
<path d="M307 299 c7 -7 15 -10 18 -7 3 3 -2 9 -12 12 -14 6 -15 5 -6 -5z"/>
<path d="M1587 299 c7 -7 15 -10 18 -7 3 3 -2 9 -12 12 -14 6 -15 5 -6 -5z"/>
</g>
</svg>
